<svg width="100" height="100" viewBox="0 0 100 100" fill="none" xmlns="http://www.w3.org/2000/svg">
  <rect width="100" height="100" rx="20" fill="#5865F2"/>
  <path d="M69.5 35.5C64.9 33.4 60.01 31.88 54.9 31C54.25 32.17 53.51 33.76 53 34.94C47.45 34.12 41.99 34.12 36.5 34.94C35.99 33.76 35.23 32.17 34.57 31C29.46 31.88 24.55 33.41 19.95 35.53C11.55 48.35 9.21 60.8 10.5 73.07C16.69 77.59 22.68 80.32 28.6 82.06C30.01 80.08 31.27 77.97 32.35 75.75C30.35 74.99 28.46 74.06 26.67 72.97C27.11 72.64 27.54 72.3 27.95 71.94C43.25 79.04 60.09 79.04 75.2 71.94C75.62 72.3 76.05 72.64 76.48 72.97C74.69 74.06 72.79 74.99 70.79 75.75C71.87 77.97 73.12 80.08 74.54 82.06C80.46 80.32 86.47 77.59 92.66 73.07C94.15 58.7 90.47 46.37 81.43 35.52L81.42 35.51L69.5 35.5ZM33.85 63.89C30.19 63.89 27.16 60.44 27.16 56.25C27.16 52.06 30.1 48.61 33.85 48.61C37.6 48.61 40.63 52.06 40.54 56.25C40.55 60.44 37.6 63.89 33.85 63.89ZM66.15 63.89C62.49 63.89 59.46 60.44 59.46 56.25C59.46 52.06 62.4 48.61 66.15 48.61C69.9 48.61 72.93 52.06 72.84 56.25C72.84 60.44 69.9 63.89 66.15 63.89Z" fill="white"/>
</svg>